<?xml version="1.0" standalone="no"?>
<!DOCTYPE svg PUBLIC "-//W3C//DTD SVG 1.1//EN" "http://www.w3.org/Graphics/SVG/1.1/DTD/svg11.dtd" >
<svg xmlns="http://www.w3.org/2000/svg">
<metadata>Generated by IcoMoon</metadata>
<defs>
<font id="currenthaus" horiz-adv-x="1024">
<font-face units-per-em="1024" ascent="960" descent="-64" />
<missing-glyph horiz-adv-x="1024" />
<glyph unicode="&#x20;" horiz-adv-x="512" d="" />
<glyph unicode="&#xe900;" glyph-name="arrow-down" d="M734.354 448l-198.949-196.023v450.56c0 14.629-11.703 26.331-26.331 26.331s-26.331-11.703-26.331-26.331v-444.709l-193.097 187.246c-11.703 11.703-26.331 11.703-38.034 0s-11.703-26.331 0-38.034l239.909-234.057c5.851-5.851 11.703-8.777 20.48-8.777 0 0 0 0 2.926 0 0 0 0 0 2.926 0 5.851 0 14.629 2.926 20.48 8.777l239.909 234.057c11.703 11.703 11.703 26.331 0 38.034s-32.183 11.703-43.886 2.926z" />
<glyph unicode="&#xe901;" glyph-name="arrow-left" d="M512 225.646l-196.023 198.949h450.56c14.629 0 26.331 11.703 26.331 26.331s-11.703 26.331-26.331 26.331h-444.709l187.246 193.097c11.703 11.703 11.703 26.331 0 38.034s-26.331 11.703-38.034 0l-234.057-239.909c-2.926-5.851-5.851-11.703-5.851-17.554 0 0 0 0 0-2.926 0 0 0 0 0-2.926 0-5.851 2.926-14.629 8.777-20.48l234.057-239.909c11.703-11.703 26.331-11.703 38.034 0s8.777 29.257 0 40.96z" />
<glyph unicode="&#xe902;" glyph-name="arrow-right" d="M512 225.646l196.023 198.949h-450.56c-14.629 0-26.331 11.703-26.331 26.331s11.703 26.331 26.331 26.331h444.709l-187.246 193.097c-11.703 11.703-11.703 26.331 0 38.034s26.331 11.703 38.034 0l234.057-239.909c5.851-5.851 8.777-11.703 8.777-20.48 0 0 0 0 0-2.926 0 0 0 0 0-2.926 0-5.851-2.926-14.629-8.777-20.48l-234.057-239.909c-11.703-11.703-26.331-11.703-38.034 0s-11.703 32.183-2.926 43.886z" />
<glyph unicode="&#xe903;" glyph-name="arrow-up" d="M734.354 448l-198.949 196.023v-450.56c0-14.629-11.703-26.331-26.331-26.331s-26.331 11.703-26.331 26.331v444.709l-193.097-187.246c-11.703-11.703-26.331-11.703-38.034 0s-11.703 26.331 0 38.034l239.909 234.057c5.851 2.926 11.703 5.851 17.554 5.851 0 0 0 0 2.926 0 0 0 0 0 2.926 0 5.851 0 14.629-2.926 20.48-8.777l239.909-234.057c11.703-11.703 11.703-26.331 0-38.034s-29.257-8.777-40.96 0z" />
<glyph unicode="&#xe904;" glyph-name="branding" d="M898.194 588.434l-248.686 248.686 23.406 17.554c67.291 67.291 178.469 67.291 248.686 0 67.291-67.291 67.291-178.469 0-248.686l-23.406-17.554zM737.28 834.194l160.914-160.914c26.331 43.886 20.48 102.4-20.48 140.434-38.034 38.034-96.549 46.811-140.434 20.48zM646.081 805.059l174.816-290.885-50.153-30.141-174.816 290.885 50.153 30.141zM52.663-11.337l87.771 327.68 55.589-17.554-61.44-228.206 231.131 61.44 14.629-58.514zM427.154 117.394l-67.291 175.543-178.469 70.217 362.789 365.714 43.886-40.96-301.349-301.349 117.029-46.811 46.811-117.029 242.834 242.834 40.96-43.886z" />
<glyph unicode="&#xe905;" glyph-name="desktop" d="M980.114 594.286h-936.229v234.057h936.229v-234.057zM102.4 652.8h819.2v117.029h-819.2v-117.029zM980.114 67.657h-936.229v438.857h58.514v-380.343h819.2v409.6h58.514zM160.914 740.571h58.514v-58.514h-58.514v58.514zM248.686 740.571h58.514v-58.514h-58.514v58.514zM336.457 740.571h58.514v-58.514h-58.514v58.514zM394.971 213.943h-234.057v292.571h234.057v-292.571zM219.429 272.457h117.029v175.543h-117.029v-175.543zM453.486 506.514h204.8v-58.514h-204.8v58.514zM453.486 389.486h409.6v-58.514h-409.6v58.514zM453.486 272.457h409.6v-58.514h-409.6v58.514z" />
<glyph unicode="&#xe906;" glyph-name="lab" d="M336.457 916.114h351.086v-58.514h-351.086v58.514zM813.349-20.114h-605.623l-8.777 8.777c-43.886 43.886-67.291 102.4-70.217 166.766 0 64.366 23.406 122.88 67.291 166.766l196.023 196.023v280.869h58.514v-304.274l-213.577-213.577c-32.183-32.183-52.663-78.994-49.737-125.806 0-43.886 14.629-84.846 43.886-117.029h555.886c61.44 70.217 58.514 178.469-8.777 242.834l-213.577 213.577v304.274h58.514v-280.869l196.023-196.023c90.697-90.697 90.697-242.834 0-333.531l-5.851-8.777zM254.537 117.394c-2.926 11.703-5.851 26.331-5.851 38.034 0 32.183 11.703 61.44 35.109 84.846l204.8 204.8 40.96-40.96-204.8-204.8c-11.703-11.703-17.554-26.331-17.554-43.886 0-5.851 0-14.629 2.926-20.48l-55.589-17.554z" />
<glyph unicode="&#xe907;" glyph-name="mobile" d="M219.429 916.114v-234.057h585.143v234.057h-585.143zM746.057 740.571h-468.114v117.029h468.114v-117.029zM746.057 272.457h-468.114v351.086h-58.514v-643.657h585.143v643.657h-58.514v-351.086zM277.943 38.4v175.543h468.114v-175.543h-468.114zM482.743 155.429h58.514v-58.514h-58.514v58.514zM453.486 828.343h117.029v-58.514h-117.029v58.514z" />
<glyph unicode="&#xe908;" glyph-name="ok" d="M362.789 521.143h-73.143v58.514h43.886l102.4 128.731v105.326c0 64.366 52.663 117.029 117.029 117.029s117.029-52.663 117.029-117.029h-58.514c0 32.183-26.331 58.514-58.514 58.514s-58.514-26.331-58.514-58.514v-128.731l-131.657-163.84zM868.937-5.486h-324.754l-201.874 58.514h-52.663v58.514h67.291l198.949-58.514h266.24l105.326 415.451-315.977 55.589v289.646h58.514v-239.909l327.68-58.514zM231.131 53.029h-175.543v526.629h175.543v-526.629zM114.103 111.543h58.514v409.6h-58.514v-409.6z" />
<glyph unicode="&#xe909;" glyph-name="quotes-down" d="M942.080 351.451l-99.474 40.96c-14.629 5.851-23.406 11.703-14.629 32.183l87.771 304.274-140.434 52.663-163.84-324.754c-26.331-52.663-46.811-102.4-46.811-155.063 0-160.914 131.657-181.394 315.977-190.171l61.44 239.909zM462.263 351.451l-99.474 40.96c-14.629 5.851-23.406 11.703-14.629 32.183l87.771 304.274-143.36 52.663-163.84-324.754c-26.331-52.663-46.811-102.4-46.811-155.063 0-160.914 131.657-181.394 315.977-190.171l64.366 239.909z" />
<glyph unicode="&#xe90a;" glyph-name="quotes-up" d="M81.92 544.549l99.474-40.96c14.629-5.851 23.406-11.703 14.629-32.183l-87.771-304.274 140.434-52.663 163.84 324.754c26.331 52.663 46.811 102.4 46.811 155.063 0 160.914-131.657 181.394-315.977 190.171l-61.44-239.909zM561.737 544.549l99.474-40.96c14.629-5.851 23.406-11.703 14.629-32.183l-87.771-304.274 140.434-52.663 163.84 324.754c26.331 52.663 46.811 102.4 46.811 155.063 0 160.914-131.657 181.394-315.977 190.171l-61.44-239.909z" />
<glyph unicode="&#xe90b;" glyph-name="social_behance" d="M433.006 474.331c0 0 73.143 23.406 70.217 117.029-5.851 93.623-70.217 114.103-122.88 122.88h-295.497v-523.703h269.166c0 0 169.691-5.851 169.691 155.063 0 0 8.777 99.474-90.697 128.731zM198.949 623.543h131.657c52.663 0 55.589-58.514 55.589-58.514 0-61.44-67.291-58.514-67.291-58.514h-119.954v117.029zM345.234 281.234h-146.286v143.36h143.36c0 0 67.291-8.777 67.291-73.143s-64.366-70.217-64.366-70.217zM748.983 582.583c0 0-181.394-2.926-190.171-198.949 0 0 0-38.034 8.777-73.143s61.44-128.731 190.171-128.731c128.731 0 163.84 96.549 178.469 128.731h-93.623c0 0-23.406-49.737-84.846-49.737s-90.697 52.663-90.697 93.623h275.017c-2.926-2.926 14.629 228.206-193.097 228.206zM664.137 424.594c0 0 11.703 78.994 84.846 78.994 0 0 73.143 5.851 84.846-78.994h-169.691zM643.657 682.057h213.577v-55.589h-213.577v55.589z" />
<glyph unicode="&#xe90c;" glyph-name="social_dribbble" d="M512 834.194c-213.577 0-386.194-172.617-386.194-386.194s172.617-386.194 386.194-386.194c213.577 0 386.194 172.617 386.194 386.194s-172.617 386.194-386.194 386.194zM836.754 462.629c-87.771 20.48-166.766 20.48-234.057 5.851-8.777 17.554-14.629 38.034-23.406 52.663 73.143 29.257 137.509 70.217 187.246 128.731 40.96-49.737 67.291-117.029 70.217-187.246zM512 772.754c78.994 0 152.137-29.257 207.726-76.069-40.96-52.663-102.4-90.697-169.691-117.029-8.777 14.629-14.629 26.331-20.48 40.96-38.034 67.291-70.217 117.029-93.623 143.36 26.331 5.851 49.737 8.777 76.069 8.777zM374.491 743.497c17.554-20.48 64.366-84.846 117.029-181.394-122.88-35.109-248.686-38.034-295.497-38.034 23.406 96.549 87.771 175.543 178.469 219.429zM187.246 448c0 2.926 0 5.851 0 11.703 2.926 0 8.777 0 14.629 0 55.589 0 187.246 5.851 318.903 43.886 8.777-14.629 14.629-32.183 23.406-49.737-58.514-20.48-105.326-46.811-143.36-76.069-70.217-49.737-114.103-105.326-134.583-137.509-52.663 55.589-78.994 128.731-78.994 207.726zM512 123.246c-76.069 0-149.211 26.331-204.8 70.217 14.629 23.406 55.589 78.994 125.806 131.657 40.96 29.257 84.846 52.663 131.657 67.291 26.331-73.143 52.663-155.063 70.217-245.76-38.034-14.629-78.994-23.406-122.88-23.406zM696.32 178.834c-17.554 84.846-40.96 160.914-67.291 228.206 64.366 11.703 131.657 5.851 204.8-11.703-14.629-87.771-67.291-166.766-137.509-216.503z" />
<glyph unicode="&#xe90d;" glyph-name="social_linkedin" d="M333.531 702.537c0-43.627-35.367-78.994-78.994-78.994s-78.994 35.367-78.994 78.994c0 43.627 35.367 78.994 78.994 78.994s78.994-35.367 78.994-78.994zM187.246 553.326h137.509v-435.931h-137.509v435.931zM421.303 114.469h134.583v225.28c0 0-5.851 102.4 76.069 102.4s76.069-76.069 76.069-102.4v-225.28h140.434v236.983c0 0 8.777 172.617-93.623 198.949-99.474 29.257-166.766-5.851-201.874-61.44v61.44h-131.657v-435.931z" />
<glyph unicode="&#xe90e;" glyph-name="social_medium" d="M383.269 167.131v0 0l-201.874 99.474c-2.926 2.926-5.851 5.851-5.851 11.703v459.337l207.726-102.4v-468.114zM406.674 386.56v210.651l187.246-301.349zM488.594 509.44l143.36 231.131 210.651-105.326-216.503-348.16zM848.457 167.131v0 0l-201.874 99.474 201.874 330.606z" />
<glyph unicode="&#xe90f;" glyph-name="social-fb" d="M664.137 676.206h-61.44c-46.811 0-55.589-23.406-55.589-55.589v-73.143h114.103l-14.629-114.103h-99.474v-292.571h-117.029v292.571h-99.474v114.103h99.474v84.846c0 96.549 58.514 152.137 146.286 152.137 40.96 0 78.994-2.926 87.771-5.851v-102.4z" />
<glyph unicode="&#xe910;" glyph-name="social-google" d="M503.223 404.114l-29.257 23.406c-2.926 2.926-8.777 8.777-14.629 14.629s-8.777 14.629-8.777 23.406c0 8.777 2.926 17.554 8.777 23.406s8.777 11.703 14.629 17.554c8.777 8.777 17.554 14.629 26.331 23.406s14.629 14.629 20.48 26.331c14.629 17.554 20.48 43.886 20.48 73.143 0 17.554-2.926 32.183-5.851 43.886s-8.777 23.406-14.629 32.183c-5.851 8.777-11.703 17.554-20.48 26.331-5.851 5.851-14.629 11.703-17.554 14.629h55.589l55.589 32.183h-178.469c-23.406 0-49.737-2.926-76.069-8.777s-52.663-20.48-78.994-40.96c-38.034-35.109-55.589-73.143-55.589-114.103 0-35.109 11.703-67.291 38.034-93.623 26.331-29.257 61.44-43.886 108.251-43.886 8.777 0 17.554 0 29.257 2.926-2.926-5.851-2.926-8.777-5.851-14.629s-2.926-11.703-2.926-20.48c0-11.703 2.926-23.406 8.777-32.183s11.703-17.554 17.554-26.331c-20.48 0-46.811-2.926-78.994-8.777s-61.44-14.629-90.697-32.183c-26.331-14.629-43.886-32.183-52.663-52.663s-14.629-38.034-14.629-52.663c0-32.183 14.629-61.44 46.811-84.846 32.183-26.331 78.994-38.034 140.434-38.034 76.069 0 131.657 17.554 172.617 52.663 38.034 32.183 58.514 70.217 58.514 111.177 0 29.257-8.777 52.663-20.48 73.143-20.48 17.554-35.109 35.109-55.589 49.737zM392.046 500.663c-17.554 0-35.109 5.851-49.737 17.554s-26.331 23.406-35.109 40.96c-17.554 35.109-29.257 67.291-29.257 96.549 0 23.406 5.851 43.886 20.48 64.366 14.629 17.554 35.109 26.331 61.44 29.257 17.554 0 35.109-5.851 49.737-14.629 14.629-11.703 26.331-23.406 32.183-40.96 17.554-35.109 26.331-70.217 26.331-105.326 0-8.777 0-17.554-2.926-29.257s-5.851-23.406-14.629-35.109c-14.629-14.629-35.109-20.48-58.514-23.406zM485.669 181.76c-23.406-17.554-55.589-26.331-96.549-26.331-46.811 0-84.846 11.703-111.177 29.257-29.257 20.48-43.886 43.886-43.886 76.069 0 14.629 2.926 29.257 8.777 40.96s11.703 20.48 20.48 26.331c8.777 5.851 17.554 11.703 26.331 14.629s14.629 5.851 20.48 8.777c20.48 5.851 38.034 8.777 55.589 11.703s29.257 2.926 35.109 2.926c8.777 0 14.629 0 20.48 0 32.183-23.406 58.514-40.96 73.143-55.589 14.629-17.554 23.406-35.109 23.406-58.514 0-29.257-11.703-52.663-32.183-70.217zM866.011 421.669h-99.474v-99.474h-52.663v99.474h-99.474v52.663h99.474v99.474h52.663v-99.474h99.474z" />
<glyph unicode="&#xe911;" glyph-name="social-linkedin" d="M248.686 567.954h111.177v-362.789h-111.177v362.789zM307.2 617.691c-35.109 0-64.366 29.257-64.366 64.366s29.257 64.366 64.366 64.366c35.109 0 64.366-29.257 64.366-64.366s-29.257-64.366-64.366-64.366zM784.091 205.166h-111.177v175.543c0 40.96 0 96.549-58.514 96.549s-67.291-46.811-67.291-93.623v-178.469h-111.177v362.789h108.251v-49.737h2.926c14.629 29.257 52.663 58.514 105.326 58.514 114.103 0 134.583-76.069 134.583-172.617v-198.949z" />
<glyph unicode="&#xe912;" glyph-name="social-pinterest" d="M558.811 313.417c-38.034 0-73.143 20.48-84.846 43.886 0 0-20.48-78.994-23.406-93.623-14.629-52.663-58.514-108.251-61.44-111.177s-8.777-2.926-8.777 2.926c0 5.851-11.703 76.069 0 131.657 5.851 29.257 43.886 187.246 43.886 187.246s-8.777 17.554-8.777 49.737c0 49.737 29.257 87.771 67.291 87.771 32.183 0 46.811-23.406 46.811-52.663 0-32.183-20.48-78.994-29.257-122.88-11.703-32.183 14.629-61.44 49.737-61.44 64.366 0 108.251 84.846 108.251 181.394 0 76.069-49.737 131.657-143.36 131.657-105.326 0-169.691-78.994-169.691-163.84 0-29.257 8.777-49.737 23.406-67.291 5.851-8.777 5.851-11.703 5.851-20.48-2.926-5.851-5.851-20.48-5.851-26.331-2.926-8.777-8.777-11.703-17.554-8.777-46.811 20.48-70.217 73.143-70.217 131.657 0 96.549 81.92 213.577 245.76 213.577 131.657 0 216.503-93.623 216.503-196.023 0-134.583-73.143-236.983-184.32-236.983z" />
<glyph unicode="&#xe913;" glyph-name="social-twitter" d="M760.686 576.731c0-5.851 0-11.703 0-17.554 0-169.691-128.731-365.714-365.714-365.714-73.143 0-140.434 20.48-196.023 58.514 8.777 0 20.48-2.926 29.257-2.926 61.44 0 114.103 20.48 157.989 55.589-55.589 0-102.4 38.034-119.954 87.771 8.777-2.926 14.629-2.926 23.406-2.926 11.703 0 23.406 2.926 35.109 5.851-58.514 11.703-102.4 64.366-102.4 125.806 0 0 0 0 0 2.926 17.554-8.777 38.034-14.629 58.514-14.629-35.109 23.406-58.514 61.44-58.514 108.251 0 23.406 5.851 46.811 17.554 64.366 64.366-78.994 157.989-128.731 263.314-134.583-2.926 8.777-2.926 20.48-2.926 29.257 0 70.217 58.514 128.731 128.731 128.731 38.034 0 70.217-14.629 93.623-40.96 29.257 5.851 55.589 17.554 81.92 32.183-8.777-29.257-29.257-55.589-55.589-70.217 26.331 2.926 49.737 8.777 73.143 20.48-14.629-29.257-35.109-52.663-61.44-70.217z" />
<glyph unicode="&#xe914;" glyph-name="stars" horiz-adv-x="6846" d="M5821.63 569.363c0 7.585 0 11.378 0 18.963 7.585 18.963 22.756 30.341 45.511 30.341 3.793 0 3.793 0 7.585 0 94.815 15.17 185.837 26.548 280.652 41.719 7.585 0 11.378 3.793 15.17 11.378 41.719 87.23 87.23 174.459 128.948 261.689 7.585 15.17 15.17 26.548 30.341 30.341 3.793 0 11.378 0 15.17 0 15.17-3.793 22.756-15.17 30.341-30.341 41.719-87.23 87.23-174.459 128.948-261.689 3.793-7.585 7.585-7.585 15.17-11.378 11.378 0 22.756-3.793 34.133-3.793 83.437-11.378 166.874-22.756 250.311-34.133 22.756-3.793 37.926-11.378 45.511-30.341 0-7.585 0-11.378 0-18.963-7.585-11.378-15.17-18.963-22.756-30.341-68.267-68.267-136.533-132.741-204.8-197.215-3.793-3.793-7.585-11.378-7.585-15.17 15.17-91.022 30.341-178.252 45.511-269.274 0-7.585 3.793-15.17 3.793-22.756 3.793-15.17 0-30.341-15.17-41.719s-26.548-11.378-41.719-3.793c-87.23 45.511-174.459 91.022-261.689 136.533-7.585 3.793-11.378 3.793-15.17 0-87.23-45.511-174.459-91.022-261.689-136.533-15.17-7.585-30.341-7.585-45.511 0-15.17 11.378-18.963 26.548-15.17 41.719 15.17 98.607 34.133 193.422 49.304 292.030 0 7.585 0 11.378-7.585 15.17-68.267 64.474-136.533 132.741-204.8 197.215-7.585 11.378-15.17 18.963-22.756 30.341zM4365.274 569.363c0 7.585 0 11.378 0 18.963 7.585 18.963 22.756 30.341 45.511 30.341 3.793 0 3.793 0 7.585 0 94.815 15.17 185.837 26.548 280.652 41.719 7.585 0 11.378 3.793 15.17 11.378 41.719 87.23 87.23 174.459 128.948 261.689 7.585 15.17 15.17 26.548 30.341 30.341 3.793 0 11.378 0 15.17 0 15.17-3.793 22.756-15.17 30.341-30.341 41.719-87.23 87.23-174.459 128.948-261.689 3.793-7.585 7.585-7.585 15.17-11.378 11.378 0 22.756-3.793 34.133-3.793 83.437-11.378 166.874-22.756 250.311-34.133 22.756-3.793 37.926-11.378 45.511-30.341 0-7.585 0-11.378 0-18.963-7.585-11.378-15.17-18.963-22.756-30.341-68.267-68.267-136.533-132.741-204.8-197.215-3.793-3.793-7.585-11.378-7.585-15.17 15.17-91.022 30.341-178.252 45.511-269.274 0-7.585 3.793-15.17 3.793-22.756 3.793-15.17 0-30.341-15.17-41.719s-26.548-11.378-41.719-3.793c-87.23 45.511-174.459 91.022-261.689 136.533-7.585 3.793-11.378 3.793-15.17 0-87.23-45.511-174.459-91.022-261.689-136.533-15.17-7.585-30.341-7.585-45.511 0-15.17 11.378-18.963 26.548-15.17 41.719 15.17 98.607 34.133 193.422 49.304 292.030 0 7.585 0 11.378-7.585 15.17-68.267 64.474-136.533 132.741-204.8 197.215-7.585 11.378-15.17 18.963-22.756 30.341zM2912.711 569.363c0 7.585 0 11.378 0 18.963 7.585 18.963 22.756 30.341 45.511 30.341 3.793 0 3.793 0 7.585 0 94.815 15.17 185.837 26.548 280.652 41.719 7.585 0 11.378 3.793 15.17 11.378 41.719 87.23 87.23 174.459 128.948 261.689 0 11.378 7.585 22.756 22.756 26.548 3.793 0 11.378 0 15.17 0 15.17-3.793 22.756-15.17 30.341-30.341 41.719-87.23 87.23-174.459 128.948-261.689 3.793-7.585 7.585-7.585 15.17-11.378 15.17 3.793 26.548 0 37.926 0 83.437-11.378 166.874-22.756 250.311-34.133 22.756-3.793 37.926-11.378 45.511-30.341 0-7.585 0-11.378 0-18.963-7.585-11.378-15.17-18.963-22.756-30.341-68.267-68.267-136.533-132.741-204.8-197.215-3.793-3.793-7.585-11.378-7.585-15.17 15.17-91.022 30.341-178.252 45.511-269.274 0-7.585 3.793-15.17 3.793-22.756 3.793-15.17 0-30.341-15.17-41.719s-26.548-11.378-41.719-3.793c-87.23 45.511-174.459 91.022-261.689 136.533-7.585 3.793-11.378 3.793-15.17 0-87.23-45.511-174.459-91.022-261.689-136.533-15.17-7.585-30.341-7.585-45.511 0-15.17 11.378-18.963 26.548-15.17 41.719 15.17 98.607 34.133 193.422 49.304 292.030 0 7.585 0 11.378-7.585 15.17-68.267 64.474-136.533 132.741-204.8 197.215-7.585 11.378-11.378 18.963-18.963 30.341zM1456.356 569.363c0 7.585 0 11.378 0 18.963 7.585 18.963 22.756 30.341 45.511 30.341 3.793 0 3.793 0 7.585 0 94.815 15.17 185.837 26.548 280.652 41.719 7.585 0 11.378 3.793 15.17 11.378 41.719 87.23 87.23 174.459 128.948 261.689 0 11.378 11.378 22.756 26.548 26.548 3.793 0 11.378 0 15.17 0 15.17-3.793 22.756-15.17 30.341-30.341 41.719-87.23 87.23-174.459 128.948-261.689 3.793-7.585 7.585-7.585 15.17-11.378 11.378 3.793 22.756 0 34.133 0 83.437-15.17 166.874-26.548 250.311-37.926 22.756-3.793 37.926-11.378 45.511-30.341 0-7.585 0-11.378 0-18.963-7.585-11.378-15.17-18.963-22.756-30.341-68.267-68.267-136.533-132.741-204.8-197.215-3.793-3.793-7.585-11.378-7.585-15.17 15.17-91.022 30.341-178.252 45.511-269.274 0-7.585 3.793-15.17 3.793-22.756 3.793-15.17 0-30.341-15.17-41.719s-26.548-11.378-41.719-3.793c-87.23 45.511-174.459 91.022-261.689 136.533-7.585 3.793-11.378 3.793-15.17 0-87.23-45.511-174.459-91.022-261.689-136.533-15.17-7.585-30.341-7.585-45.511 0-15.17 11.378-18.963 26.548-15.17 41.719 15.17 98.607 34.133 193.422 49.304 292.030 0 7.585 0 11.378-7.585 15.17-68.267 64.474-136.533 132.741-204.8 197.215-7.585 15.17-11.378 22.756-18.963 34.133zM0 569.363c0 7.585 0 11.378 0 18.963 7.585 18.963 22.756 30.341 45.511 30.341 3.793 0 3.793 0 7.585 0 94.815 15.17 185.837 26.548 280.652 41.719 7.585 0 11.378 3.793 15.17 11.378 41.719 87.23 87.23 174.459 128.948 261.689 7.585 15.17 15.17 26.548 30.341 30.341 3.793 0 11.378 0 15.17 0 15.17-3.793 22.756-15.17 30.341-30.341 41.719-87.23 87.23-174.459 128.948-261.689 3.793-7.585 7.585-7.585 15.17-11.378 11.378 0 22.756-3.793 34.133-3.793 83.437-11.378 166.874-22.756 250.311-34.133 22.756-3.793 37.926-11.378 45.511-30.341 0-7.585 0-11.378 0-18.963-7.585-11.378-15.17-18.963-22.756-30.341-68.267-68.267-136.533-132.741-204.8-197.215-3.793-3.793-7.585-11.378-7.585-15.17 15.17-91.022 30.341-178.252 45.511-269.274 0-7.585 3.793-15.17 3.793-22.756 3.793-15.17 0-30.341-15.17-41.719s-26.548-11.378-41.719-3.793c-87.23 45.511-174.459 91.022-261.689 136.533-7.585 3.793-11.378 3.793-15.17 0-87.23-45.511-174.459-91.022-261.689-136.533-15.17-7.585-30.341-7.585-45.511 0-15.17 11.378-18.963 26.548-15.17 41.719 15.17 98.607 34.133 193.422 49.304 292.030 0 7.585 0 11.378-7.585 15.17-68.267 64.474-136.533 132.741-204.8 197.215-7.585 11.378-15.17 18.963-22.756 30.341z" />
</font>
</defs>
</svg>
